<svg id="visual" viewBox="0 0 900 450" width="900" height="450" xmlns="http://www.w3.org/2000/svg" xmlns:xlink="http://www.w3.org/1999/xlink" version="1.1"><path d="M0 140L7.5 126.3C15 112.7 30 85.3 45 71.7C60 58 75 58 90 58.5C105 59 120 60 135 59.3C150 58.7 165 56.3 180 58C195 59.7 210 65.3 225 72.8C240 80.3 255 89.7 270 97.2C285 104.7 300 110.3 315 107C330 103.7 345 91.3 360 92.5C375 93.7 390 108.3 405 107.2C420 106 435 89 450 87.7C465 86.3 480 100.7 495 110.8C510 121 525 127 540 114.8C555 102.7 570 72.3 585 70.2C600 68 615 94 630 93C645 92 660 64 675 65.2C690 66.3 705 96.7 720 106C735 115.3 750 103.7 765 92.8C780 82 795 72 810 64.2C825 56.3 840 50.7 855 59.8C870 69 885 93 892.5 105L900 117L900 0L892.5 0C885 0 870 0 855 0C840 0 825 0 810 0C795 0 780 0 765 0C750 0 735 0 720 0C705 0 690 0 675 0C660 0 645 0 630 0C615 0 600 0 585 0C570 0 555 0 540 0C525 0 510 0 495 0C480 0 465 0 450 0C435 0 420 0 405 0C390 0 375 0 360 0C345 0 330 0 315 0C300 0 285 0 270 0C255 0 240 0 225 0C210 0 195 0 180 0C165 0 150 0 135 0C120 0 105 0 90 0C75 0 60 0 45 0C30 0 15 0 7.5 0L0 0Z" fill="#0dd3cd" stroke-linecap="round" stroke-linejoin="miter"></path></svg>