<svg id="visual" viewBox="0 0 900 450" width="900" height="450" xmlns="http://www.w3.org/2000/svg" xmlns:xlink="http://www.w3.org/1999/xlink" version="1.1"><path d="M0 105L7.5 94.7C15 84.3 30 63.7 45 53.3C60 43 75 43 90 43.3C105 43.7 120 44.3 135 43.8C150 43.3 165 41.7 180 43C195 44.3 210 48.7 225 54.3C240 60 255 67 270 72.7C285 78.3 300 82.7 315 80.2C330 77.7 345 68.3 360 69.2C375 70 390 81 405 80.2C420 79.3 435 66.7 450 65.7C465 64.7 480 75.3 495 82.8C510 90.3 525 94.7 540 85.5C555 76.3 570 53.7 585 52.2C600 50.7 615 70.3 630 69.7C645 69 660 48 675 48.8C690 49.7 705 72.3 720 79.2C735 86 750 77 765 69C780 61 795 54 810 48.2C825 42.3 840 37.7 855 44.5C870 51.3 885 69.7 892.5 78.8L900 88L900 0L892.5 0C885 0 870 0 855 0C840 0 825 0 810 0C795 0 780 0 765 0C750 0 735 0 720 0C705 0 690 0 675 0C660 0 645 0 630 0C615 0 600 0 585 0C570 0 555 0 540 0C525 0 510 0 495 0C480 0 465 0 450 0C435 0 420 0 405 0C390 0 375 0 360 0C345 0 330 0 315 0C300 0 285 0 270 0C255 0 240 0 225 0C210 0 195 0 180 0C165 0 150 0 135 0C120 0 105 0 90 0C75 0 60 0 45 0C30 0 15 0 7.5 0L0 0Z" fill="#0dd3cd" stroke-linecap="round" stroke-linejoin="miter"></path></svg>